<?xml version="1.0"?>
<svg xmlns="http://www.w3.org/2000/svg" viewBox="0 0 500 255.82" width="150" height="77"><defs><style>.cls-1{fill:#1d1d1b;}.cls-2{fill:#bd1622;}.cls-3{fill:#9b9a9a;}</style></defs><title>lmt-logo</title><g id="Ebene_2" data-name="Ebene 2"><g id="Ebene_1-2" data-name="Ebene 1"><path class="cls-1" d="M289.968,223.577a3.079,3.079,0,0,0-1.952-1.609,9.646,9.646,0,0,0-3.312-.529,13.79,13.79,0,0,0-1.952.14,5.3,5.3,0,0,0-1.781.571,3.859,3.859,0,0,0-1.329,1.163,3.192,3.192,0,0,0-.534,1.926,2.173,2.173,0,0,0,.54,1.469,4.458,4.458,0,0,0,1.36,1.043,7.643,7.643,0,0,0,1.812.649c.659.151,1.3.281,1.9.395a22.5,22.5,0,0,1,3.93.981,12.373,12.373,0,0,1,3.23,1.661,7.986,7.986,0,0,1,2.211,2.43,6.394,6.394,0,0,1,.825,3.281,7.342,7.342,0,0,1-.784,3.426,8.027,8.027,0,0,1-2.169,2.663,10.158,10.158,0,0,1-3.25,1.7,13.028,13.028,0,0,1-3.961.6,11.75,11.75,0,0,1-6.256-1.63,7.971,7.971,0,0,1-3.6-4.522,1.846,1.846,0,0,1,.109-1.417,1.731,1.731,0,0,1,1.132-.9,1.628,1.628,0,0,1,1.386.166,2.218,2.218,0,0,1,.935,1.132,5.28,5.28,0,0,0,2.522,2.741,8,8,0,0,0,3.764.924,8.472,8.472,0,0,0,4.724-1.282,4.065,4.065,0,0,0,1.947-3.6,3.774,3.774,0,0,0-1.931-3.162,11.179,11.179,0,0,0-4.755-1.692,15.7,15.7,0,0,1-6.6-2.222,5.448,5.448,0,0,1-2.529-4.833,6.244,6.244,0,0,1,2.876-5.55,8.989,8.989,0,0,1,2.939-1.225,15.379,15.379,0,0,1,3.28-.374,14.045,14.045,0,0,1,2.69.255,11.852,11.852,0,0,1,2.466.732,7.925,7.925,0,0,1,2.009,1.209,4.84,4.84,0,0,1,1.334,1.755,2.015,2.015,0,0,1,.171,1.552,1.569,1.569,0,0,1-1.188,1.106,1.356,1.356,0,0,1-1.3-.083,2.6,2.6,0,0,1-.909-1.044"/><path class="cls-1" d="M304.279,221.515l-3.774.005a1.721,1.721,0,0,1-1.256-.5,1.692,1.692,0,0,1-.514-1.245,1.671,1.671,0,0,1,.509-1.246,1.728,1.728,0,0,1,1.256-.514l3.774-.006-.01-6.9a1.667,1.667,0,0,1,.5-1.241,1.717,1.717,0,0,1,2.445-.005,1.705,1.705,0,0,1,.5,1.241l.015,6.9,3.775,0a1.747,1.747,0,0,1,1.775,1.75,1.736,1.736,0,0,1-1.755,1.754l-3.732.011.041,22.234a1.728,1.728,0,0,1-1.749,1.755,1.688,1.688,0,0,1-1.246-.5,1.719,1.719,0,0,1-.514-1.246Z"/><path class="cls-1" d="M320.1,233.484a9.578,9.578,0,0,0,1.189,3.364,10.236,10.236,0,0,0,5.269,4.46,10.276,10.276,0,0,0,7.476-.125,10.754,10.754,0,0,0,3.218-2.128,1.76,1.76,0,0,1,2.492,2.486,10.6,10.6,0,0,1-4.21,2.975,15.3,15.3,0,0,1-5.4.888,13.655,13.655,0,0,1-9.63-3.832,13.2,13.2,0,0,1-2.949-4.293,13.652,13.652,0,0,1-1.085-5.43,13.394,13.394,0,0,1,3.915-9.6,14.109,14.109,0,0,1,4.35-2.949,15.011,15.011,0,0,1,5.461-1.23,12.5,12.5,0,0,1,5.119,1.069,14.681,14.681,0,0,1,4.278,2.876,13.87,13.87,0,0,1,4.2,9.443,1.549,1.549,0,0,1-.478,1.47,1.914,1.914,0,0,1-1.272.514Zm9.988-11.847a9.716,9.716,0,0,0-3.535.66,10.849,10.849,0,0,0-3,1.76,9.564,9.564,0,0,0-2.2,2.632,10.648,10.648,0,0,0-1.209,3.286l19.971-.037a10.047,10.047,0,0,0-1.251-3.281,9.933,9.933,0,0,0-2.238-2.626,10.808,10.808,0,0,0-3-1.75,9.69,9.69,0,0,0-3.536-.644"/><path class="cls-1" d="M350.622,219.677a1.67,1.67,0,0,1,.508-1.246,1.716,1.716,0,0,1,1.241-.514,1.745,1.745,0,0,1,1.76,1.754v.623a9.815,9.815,0,0,1,2.518-1.76,6.978,6.978,0,0,1,3.193-.8,8.872,8.872,0,0,1,4.3,1.043,9.248,9.248,0,0,1,3.177,2.793,9.853,9.853,0,0,1,3.219-2.808,8.867,8.867,0,0,1,4.3-1.054,9.142,9.142,0,0,1,3.624.727,9.242,9.242,0,0,1,4.932,4.916,9.088,9.088,0,0,1,.748,3.624l.026,16.633a1.661,1.661,0,0,1-.509,1.246,1.78,1.78,0,0,1-2.487.005,1.707,1.707,0,0,1-.514-1.246l-.031-16.633a5.5,5.5,0,0,0-.457-2.238,5.846,5.846,0,0,0-3.089-3.078,5.739,5.739,0,0,0-4.465.01,5.444,5.444,0,0,0-1.811,1.246,6.115,6.115,0,0,0-1.215,1.843,5.6,5.6,0,0,0-.447,2.238l.032,16.633a1.7,1.7,0,0,1-.5,1.246,1.715,1.715,0,0,1-1.246.509,1.675,1.675,0,0,1-1.246-.5,1.711,1.711,0,0,1-.514-1.246l-.031-16.633a5.961,5.961,0,0,0-1.791-4.127,5.509,5.509,0,0,0-3.992-1.636,5.444,5.444,0,0,0-3.987,1.62,5.776,5.776,0,0,0-1.718,3.935l.036,16.862a1.746,1.746,0,0,1-1.755,1.76,1.746,1.746,0,0,1-1.76-1.755Z"/><path class="cls-1" d="M406.306,223.369a3.1,3.1,0,0,0-1.958-1.61,9.734,9.734,0,0,0-3.307-.534,14.842,14.842,0,0,0-1.957.145,5.46,5.46,0,0,0-1.775.571,3.868,3.868,0,0,0-1.329,1.163,3.187,3.187,0,0,0-.535,1.926,2.176,2.176,0,0,0,.54,1.469,4.488,4.488,0,0,0,1.36,1.044,7.4,7.4,0,0,0,1.812.649c.659.15,1.292.28,1.9.389a22.9,22.9,0,0,1,3.935.986,12.384,12.384,0,0,1,3.229,1.667,7.972,7.972,0,0,1,2.211,2.424,6.421,6.421,0,0,1,.826,3.281,7.492,7.492,0,0,1-.784,3.426,7.915,7.915,0,0,1-2.175,2.664,10.022,10.022,0,0,1-3.25,1.7,13.059,13.059,0,0,1-3.961.6,11.769,11.769,0,0,1-6.251-1.631,7.934,7.934,0,0,1-3.6-4.521,1.849,1.849,0,0,1,.109-1.418,1.724,1.724,0,0,1,1.132-.9,1.655,1.655,0,0,1,1.387.166,2.221,2.221,0,0,1,.934,1.132,5.25,5.25,0,0,0,2.523,2.736,8,8,0,0,0,3.764.929,8.516,8.516,0,0,0,4.724-1.277,4.054,4.054,0,0,0,1.942-3.6,3.76,3.76,0,0,0-1.927-3.161,11.15,11.15,0,0,0-4.755-1.693,15.7,15.7,0,0,1-6.6-2.222,5.449,5.449,0,0,1-2.528-4.833,6.213,6.213,0,0,1,2.876-5.549,9.007,9.007,0,0,1,2.938-1.226,15.343,15.343,0,0,1,3.281-.373,14.106,14.106,0,0,1,2.689.254,12.16,12.16,0,0,1,2.466.727,8.175,8.175,0,0,1,2.009,1.215,4.8,4.8,0,0,1,1.329,1.754,2.021,2.021,0,0,1,.177,1.552,1.563,1.563,0,0,1-1.189,1.106,1.343,1.343,0,0,1-1.3-.083,2.6,2.6,0,0,1-.908-1.043"/><path class="cls-1" d="M235.86,223.634a3.113,3.113,0,0,0-1.958-1.61,9.858,9.858,0,0,0-3.307-.529,13.373,13.373,0,0,0-1.957.145,5.4,5.4,0,0,0-1.78.566,3.913,3.913,0,0,0-1.324,1.168A3.178,3.178,0,0,0,225,225.3a2.176,2.176,0,0,0,.54,1.469,4.412,4.412,0,0,0,1.36,1.044,7.322,7.322,0,0,0,1.812.649c.659.15,1.293.28,1.895.394a22.578,22.578,0,0,1,3.935.981,12.457,12.457,0,0,1,3.229,1.667,7.983,7.983,0,0,1,2.211,2.424,6.4,6.4,0,0,1,.826,3.286,7.422,7.422,0,0,1-.784,3.421,8,8,0,0,1-2.175,2.664,10.074,10.074,0,0,1-3.25,1.7,13.035,13.035,0,0,1-3.961.6,11.744,11.744,0,0,1-6.251-1.63,7.933,7.933,0,0,1-3.6-4.522,1.8,1.8,0,0,1,.109-1.412,1.714,1.714,0,0,1,1.126-.909,1.664,1.664,0,0,1,1.392.166,2.266,2.266,0,0,1,.934,1.132,5.274,5.274,0,0,0,2.523,2.741,8.057,8.057,0,0,0,3.764.929,8.481,8.481,0,0,0,4.724-1.282,4.062,4.062,0,0,0,1.947-3.6,3.783,3.783,0,0,0-1.932-3.167,11.092,11.092,0,0,0-4.755-1.687,15.784,15.784,0,0,1-6.6-2.228,5.436,5.436,0,0,1-2.528-4.833,6.213,6.213,0,0,1,2.876-5.549,8.879,8.879,0,0,1,2.938-1.22,14.608,14.608,0,0,1,5.97-.125,11.716,11.716,0,0,1,2.461.732,7.883,7.883,0,0,1,2.014,1.21,4.826,4.826,0,0,1,1.334,1.754,2.021,2.021,0,0,1,.172,1.553,1.586,1.586,0,0,1-1.189,1.111,1.371,1.371,0,0,1-1.3-.084,2.611,2.611,0,0,1-.908-1.048"/><path class="cls-1" d="M265.215,219.114a1.755,1.755,0,0,1,.961-.909,1.583,1.583,0,0,1,1.3,0,1.612,1.612,0,0,1,.934.961,1.631,1.631,0,0,1-.026,1.3l-12.839,34.2a1.869,1.869,0,0,1-.9.992,1.5,1.5,0,0,1-1.3.031,1.841,1.841,0,0,1-.992-.934,1.564,1.564,0,0,1-.031-1.329l3.374-9.174v-.114q-2.382-6.5-4.034-11t-2.673-7.237q-1.028-2.74-1.48-3.987c-.306-.831-.457-1.262-.457-1.3a1.977,1.977,0,0,1-.057-1.391,1.549,1.549,0,0,1,.847-.992,1.915,1.915,0,0,1,1.469.026,1.639,1.639,0,0,1,.908.878l7.393,20.075Z"/><path class="cls-1" d="M1.793,220.277a1.738,1.738,0,0,1,1.75-1.755,1.738,1.738,0,0,1,1.76,1.75v.623a9.756,9.756,0,0,1,2.518-1.76,6.992,6.992,0,0,1,3.192-.8,8.892,8.892,0,0,1,4.3,1.038,9.264,9.264,0,0,1,3.172,2.8,9.831,9.831,0,0,1,3.219-2.808,8.812,8.812,0,0,1,4.3-1.054,9.059,9.059,0,0,1,3.624.726,9.633,9.633,0,0,1,2.948,1.978,9.444,9.444,0,0,1,1.984,2.939,8.954,8.954,0,0,1,.742,3.618l.036,16.639a1.755,1.755,0,1,1-3.509,0L31.8,227.582a5.606,5.606,0,0,0-.462-2.238,5.806,5.806,0,0,0-3.089-3.073,5.574,5.574,0,0,0-2.233-.452,5.605,5.605,0,0,0-4.044,1.7,6.182,6.182,0,0,0-1.214,1.843,5.549,5.549,0,0,0-.447,2.232l.031,16.639a1.7,1.7,0,0,1-.5,1.245,1.736,1.736,0,0,1-1.246.514,1.745,1.745,0,0,1-1.76-1.754L16.8,227.607a5.939,5.939,0,0,0-1.791-4.127,5.485,5.485,0,0,0-3.993-1.635,5.422,5.422,0,0,0-3.987,1.62A5.767,5.767,0,0,0,5.318,227.4l.032,16.861a1.746,1.746,0,0,1-1.75,1.76,1.7,1.7,0,0,1-1.246-.508,1.677,1.677,0,0,1-.514-1.241Z"/><path class="cls-1" d="M45.728,233.951a9.625,9.625,0,0,0,1.194,3.359,10.212,10.212,0,0,0,5.27,4.465,10.247,10.247,0,0,0,7.47-.125,10.657,10.657,0,0,0,3.224-2.128A1.758,1.758,0,0,1,65.378,242a10.537,10.537,0,0,1-4.211,2.98,15.411,15.411,0,0,1-5.4.888,13.706,13.706,0,0,1-9.63-3.831,13.193,13.193,0,0,1-2.948-4.294,13.648,13.648,0,0,1,2.829-15.029,14.1,14.1,0,0,1,4.35-2.954,15.005,15.005,0,0,1,5.457-1.225,12.419,12.419,0,0,1,5.123,1.064,14.766,14.766,0,0,1,4.278,2.882,13.759,13.759,0,0,1,2.98,4.236,13.9,13.9,0,0,1,1.225,5.207,1.564,1.564,0,0,1-.477,1.469,1.911,1.911,0,0,1-1.272.514Zm9.994-11.846a9.5,9.5,0,0,0-3.536.659,10.743,10.743,0,0,0-2.995,1.755,9.61,9.61,0,0,0-2.2,2.637,10.463,10.463,0,0,0-1.21,3.286l19.971-.042a10.149,10.149,0,0,0-1.251-3.275,10.048,10.048,0,0,0-2.242-2.627,10.729,10.729,0,0,0-3-1.75,9.583,9.583,0,0,0-3.535-.643"/><path class="cls-1" d="M88.42,218.483a12.245,12.245,0,0,1,5.773,1.6,18.7,18.7,0,0,1,4.48,3.531l-.026-12.169a1.746,1.746,0,0,1,1.749-1.755,1.746,1.746,0,0,1,1.76,1.75l.063,32.649a1.763,1.763,0,0,1-3,1.256,1.72,1.72,0,0,1-.514-1.246l-.005-2.663-.509.514a13.485,13.485,0,0,1-4.35,2.834,13.723,13.723,0,0,1-5.259,1.028,13.428,13.428,0,0,1-5.378-1.064,13.649,13.649,0,0,1-4.335-2.933,14.42,14.42,0,0,1-2.923-4.325,13.318,13.318,0,0,1,.01-10.554,14.2,14.2,0,0,1,7.284-7.341,12.487,12.487,0,0,1,5.176-1.11m10.268,13.731a11.593,11.593,0,0,0-.939-4.075,10.518,10.518,0,0,0-2.186-3.219,9.9,9.9,0,0,0-7.024-2.876,10.017,10.017,0,0,0-3.961.8,10.14,10.14,0,0,0-6.2,9.4,9.787,9.787,0,0,0,.8,3.93,10.145,10.145,0,0,0,5.44,5.394,10.044,10.044,0,0,0,3.967.784,9.811,9.811,0,0,0,3.93-.8,10.192,10.192,0,0,0,3.218-2.18,10.326,10.326,0,0,0,2.176-3.234,9.881,9.881,0,0,0,.783-3.93"/><path class="cls-1" d="M111.436,211.991a2.32,2.32,0,1,1,2.326,2.316,2.334,2.334,0,0,1-2.326-2.316m.582,8.088a1.755,1.755,0,1,1,3.509,0l.047,23.99a1.755,1.755,0,1,1-3.509,0Z"/><path class="cls-1" d="M146.316,224.77a11.691,11.691,0,0,0-3.229-2,9.963,9.963,0,0,0-3.9-.763,9.817,9.817,0,0,0-3.935.8,10.123,10.123,0,0,0-5.388,5.441,9.984,9.984,0,0,0-.789,3.961,9.793,9.793,0,0,0,.8,3.93,10.188,10.188,0,0,0,5.41,5.394,9.837,9.837,0,0,0,3.935.789,9.941,9.941,0,0,0,3.9-.774,10.638,10.638,0,0,0,3.224-2.128,1.778,1.778,0,0,1,2.486,0,1.612,1.612,0,0,1,.483,1.271,2.045,2.045,0,0,1-.649,1.392,13.23,13.23,0,0,1-1.381,1.163,12.878,12.878,0,0,1-2.092,1.22,15.046,15.046,0,0,1-2.715.934,13.84,13.84,0,0,1-12.88-3.452,13.179,13.179,0,0,1-2.949-4.3,13.464,13.464,0,0,1-1.085-5.43,13.315,13.315,0,0,1,1.034-5.29,13.511,13.511,0,0,1,2.881-4.309,14.079,14.079,0,0,1,4.35-2.949,14.9,14.9,0,0,1,5.456-1.225,10.976,10.976,0,0,1,3.141.421,14.989,14.989,0,0,1,2.606,1.012,14.143,14.143,0,0,1,2.066,1.267c.6.457,1.1.846,1.475,1.189a2.287,2.287,0,0,1,.6,1.043,1.271,1.271,0,0,1-.369,1.386,1.666,1.666,0,0,1-1.241.514,1.7,1.7,0,0,1-1.246-.509"/><path class="cls-1" d="M168.431,218.334a12.574,12.574,0,0,1,5.176,1.1,14.235,14.235,0,0,1,7.315,7.315,13.025,13.025,0,0,1,1.116,5.316L182.059,244a1.746,1.746,0,0,1-1.75,1.76,1.7,1.7,0,0,1-1.246-.509,1.679,1.679,0,0,1-.514-1.241l0-3.452a17.763,17.763,0,0,1-4.49,3.6,11.231,11.231,0,0,1-5.685,1.51,13.625,13.625,0,0,1-9.625-3.831,13.156,13.156,0,0,1-2.954-4.293,13.548,13.548,0,0,1-1.085-5.43,13.729,13.729,0,0,1,1.039-5.348,13.59,13.59,0,0,1,2.875-4.392,13.454,13.454,0,0,1,4.351-2.948,13.758,13.758,0,0,1,5.461-1.09m-10.216,13.772a9.786,9.786,0,0,0,.8,3.93,10.22,10.22,0,0,0,5.415,5.394,9.8,9.8,0,0,0,3.935.789,9.935,9.935,0,0,0,3.847-.773,10.144,10.144,0,0,0,3.192-2.129,10.5,10.5,0,0,0,2.2-3.2,11.418,11.418,0,0,0,.924-4.049,10.12,10.12,0,0,0-.8-3.961,10.071,10.071,0,0,0-5.446-5.42,10.015,10.015,0,0,0-3.961-.784,9.876,9.876,0,0,0-3.93.795,10.3,10.3,0,0,0-3.224,2.185,10.151,10.151,0,0,0-2.17,3.26,10,10,0,0,0-.783,3.961"/><path class="cls-1" d="M189.124,211.284a1.69,1.69,0,0,1,.509-1.246,1.769,1.769,0,0,1,2.487-.006,1.692,1.692,0,0,1,.514,1.246l.062,32.649a1.755,1.755,0,1,1-3.509,0Z"/><path class="cls-2" d="M428,39.55a29.91,29.91,0,1,1,29.913,29.908A29.913,29.913,0,0,1,428,39.55"/><path class="cls-3" d="M422.223,34.964A36.077,36.077,0,0,1,445.994,5.591,84.15,84.15,0,0,0,333.066,68.957H368.59a49.567,49.567,0,0,1,53.633-33.993"/><path class="cls-3" d="M492.509,49.468a36.092,36.092,0,0,1-27.92,25.443,49.619,49.619,0,0,1-48.757,58.881c-1.537,0-3.058-.083-4.564-.223v34.637q2.267.124,4.564.124A84.154,84.154,0,0,0,492.509,49.468"/><path class="cls-1" d="M111.714,185.065q0,6.386-6.3,6.385H47.86q-19.732,0-30.8-3.556Q0,181.992,0,165.5V99.3Q0,93,6.308,92.99a37.032,37.032,0,0,1,7.761.488q3.877,1.129,3.883,5.82V165.5q0,7.669,12.444,10.1,3.956,1.051,18.434,1.049h56.581c4.2,0,6.3,2.813,6.3,8.41"/><path class="cls-1" d="M284.853,185.065c0,3.125-1.287,5.093-3.878,5.9-1.08.327-3.665.483-7.761.483q-6.307,0-6.3-6.385v-63.7l-52.947,65.313a15.213,15.213,0,0,1-22.873,0l-53.928-65.635v64.021q0,6.386-6.3,6.385c-4.153,0-6.734-.156-7.767-.483q-3.878-1.214-3.878-5.9V102.449q0-9.135,10.03-9.132a13.08,13.08,0,0,1,10.508,4.688l63.054,74.611L264.4,97.927A12.57,12.57,0,0,1,274.6,93.234q10.255,0,10.258,9.942Z"/><path class="cls-1" d="M430.614,101.24c0,4.252-2.092,6.386-6.3,6.386H370.664v77.44q0,6.386-6.256,6.385c-4.226,0-6.842-.161-7.886-.483q-3.807-1.144-3.805-5.9v-77.44H299.4q-6.393,0-6.39-6.386,0-4.368.965-5.986c.867-1.51,2.669-2.263,5.425-2.263H424.312c4.21,0,6.3,2.751,6.3,8.249"/></g></g></svg>
