<svg width="177" height="33" viewBox="0 0 177 33" version="1.1" xmlns="http://www.w3.org/2000/svg" xmlns:xlink="http://www.w3.org/1999/xlink">
<title>Wellion_Icon_logo_nebeneinander_grau Copy</title>
<desc>Created using Figma</desc>
<g id="Canvas" transform="translate(-38741 -7350)">
<g id="Wellion_Icon_logo_nebeneinander_grau Copy">
<g id="Group 3">
<mask id="mask0_outline" mask-type="alpha">
<g id="Clip 2">
<use xlink:href="#path0_fill" transform="translate(38812.5 7360.22)" fill="#FFFFFF"/>
</g>
</mask>
<g id="Fill 1" mask="url(#mask0_outline)">
<use xlink:href="#path1_fill" transform="translate(38812.5 7360.22)" fill="#004A7F"/>
</g>
</g>
<g id="Fill 4">
<use xlink:href="#path2_fill" transform="translate(38834.8 7350.62)" fill="#004A7F"/>
</g>
<g id="Fill 5">
<use xlink:href="#path3_fill" transform="translate(38846 7350.62)" fill="#004A7F"/>
</g>
<g id="Group 9">
<mask id="mask1_outline" mask-type="alpha">
<g id="Clip 7">
<use xlink:href="#path4_fill" transform="translate(38860.5 7360.14)" fill="#FFFFFF"/>
</g>
</mask>
<g id="Fill 6" mask="url(#mask1_outline)">
<use xlink:href="#path5_fill" transform="translate(38860.5 7360.92)" fill="#004A7F"/>
</g>
<g id="Fill 8" mask="url(#mask1_outline)">
<use xlink:href="#path6_fill" transform="translate(38870.4 7360.14)" fill="#004A7F"/>
</g>
</g>
<g id="Fill 10">
<use xlink:href="#path7_fill" transform="translate(38894.9 7360.58)" fill="#004A7F"/>
</g>
<g id="Fill 11">
<use xlink:href="#path8_fill" transform="translate(38777.7 7360.58)" fill="#004A7F"/>
</g>
<g id="Fill 12">
<use xlink:href="#path9_fill" transform="translate(38856.2 7354.6)" fill="#004A7F"/>
</g>
<g id="Group 16">
<mask id="mask2_outline" mask-type="alpha">
<g id="Clip 14">
<use xlink:href="#path10_fill" transform="translate(38741.1 7350.9)" fill="#FFFFFF"/>
</g>
</mask>
<g id="Fill 13" mask="url(#mask2_outline)">
<use xlink:href="#path11_fill" transform="translate(38913.8 7358.03)" fill="#004A7F"/>
</g>
<g id="Fill 15" mask="url(#mask2_outline)">
<use xlink:href="#path12_fill" transform="translate(38741 7350.9)" fill="#004A7F"/>
</g>
</g>
</g>
</g>
<defs>
<path id="path0_fill" fill-rule="evenodd" d="M 9.65705e-15 22.6158L 17.1948 22.6158L 17.1948 0L 0 0L 0 22.6158L 9.65705e-15 22.6158Z"/>
<path id="path1_fill" fill-rule="evenodd" d="M 8.79379 2.68555C 10.4247 2.68555 11.9265 3.4215 12.6571 4.5823C 13.2918 5.62867 13.5935 7.05946 13.6465 9.37765L 3.85547 9.37765C 4.02876 4.93384 5.7555 2.68555 8.79379 2.68555ZM 10.1641 19.8084C 8.0269 19.8084 6.04872 19.0245 4.84658 17.162C 4.11878 16.0512 3.85511 14.4881 3.85511 12.455L 3.85511 11.9349L 17.1948 11.9349L 17.1948 11.4724C 17.1173 6.31659 16.6015 4.28826 14.7572 2.37574C 13.3342 0.817497 11.2847 0 8.96537 0C 6.39597 0 4.29275 0.997031 2.57551 3.03563C 0.734599 5.15304 0 7.5329 0 11.1633C 0 18.2981 3.56155 22.6234 9.48047 22.6234C 12.2265 22.6234 14.7953 21.675 16.6824 19.9365L 15.4055 17.7705C 13.8976 19.1588 12.2265 19.8084 10.1641 19.8084L 10.1641 19.8084Z"/>
<path id="path2_fill" fill-rule="evenodd" d="M 0.58235 6.65788L 0.58235 27.889C 0.58235 29.4507 0.839269 30.2654 1.57841 30.9692C 2.19896 31.5756 2.99212 31.8819 4.04351 31.8819C 4.9032 31.8819 5.27475 31.7757 6.11599 31.3981L 5.448 29.1971L 5.031 29.2663C 4.11993 29.2663 3.85906 28.8024 3.85906 27.1085L 3.85906 6.65788C 3.85906 4.06147 3.90517 1.64186 3.37882 0L 0 0.689361C 0.505274 2.20787 0.58235 3.42488 0.58235 6.65788"/>
<path id="path3_fill" fill-rule="evenodd" d="M 0.582256 6.65788L 0.582256 27.889C 0.582256 29.4507 0.827555 30.2654 1.58257 30.9692C 2.20571 31.5756 3.0003 31.8819 4.03952 31.8819C 4.90796 31.8819 5.2825 31.7757 6.11599 31.3981L 5.45065 29.1971L 5.03457 29.2663C 4.11733 29.2663 3.87929 28.8024 3.87929 27.1085L 3.87929 6.65788C 3.87929 4.06147 3.91226 1.64186 3.36825 0L 0 0.689361C 0.496533 2.20787 0.582256 3.42488 0.582256 6.65788"/>
<path id="path4_fill" fill-rule="evenodd" d="M 1.95626e-14 22.6987L 28.4846 22.6987L 28.4846 0L 0 0L 0 22.6987L 1.95626e-14 22.6987Z"/>
<path id="path5_fill" fill-rule="evenodd" d="M 0 21.4427L 3.60049 21.4427L 3.60049 0L 0 0L 0 21.4427Z"/>
<path id="path6_fill" fill-rule="evenodd" d="M 13.7637 5.52735C 14.4596 6.95677 14.7631 8.99126 14.7631 12.018C 14.7631 14.1429 14.5876 15.3531 14.1127 16.6838C 13.3762 18.7663 11.6754 19.9353 9.42057 19.9353C 7.55528 19.9353 5.81663 19.0726 5.03197 17.7754C 4.20601 16.4399 3.68359 13.753 3.68359 10.7249C 3.68359 8.17308 4.03669 6.45243 4.7243 5.10387C 5.51585 3.71899 7.24485 2.76855 9.15901 2.76855C 10.9348 2.76855 12.849 3.63402 13.7637 5.52735ZM 0 11.286C 0 18.381 3.56126 22.7399 9.33058 22.7399C 11.7644 22.7399 13.5471 22.1478 15.2513 20.669C 17.6287 18.5893 18.6316 15.9525 18.6316 11.7554C 18.6316 8.25446 17.977 5.71152 16.6217 3.76062C 15.157 1.63979 12.8092 0 9.19981 0C 3.51033 0 0 4.27524 0 11.286L 0 11.286Z"/>
<path id="path7_fill" fill-rule="evenodd" d="M 0.863225 5.97959L 0.863225 21.9188L 4.27692 21.9188L 4.27692 5.97959C 5.89431 4.33486 8.68286 2.97141 10.4913 2.97141C 11.527 2.97141 12.4715 3.31602 12.9655 3.87448C 13.6405 4.5637 13.7795 5.17051 13.7795 7.43022L 13.7795 21.9188L 17.3286 21.9188L 17.3286 5.66767C 17.3286 4.81909 17.1469 3.96438 16.7912 3.18662C 15.8852 1.28445 13.7261 0.0497164 11.306 0.0497164C 8.9131 0.0497164 6.56721 1.12237 4.24484 3.35416C 4.24484 2.11261 4.00819 1.20477 3.42938 0L 0 0.906474C 0.770558 2.54031 0.863225 3.02385 0.863225 5.97959"/>
<path id="path8_fill" fill-rule="evenodd" d="M 31.5993 0L 27.9795 0L 22.5267 16.9339L 22.4793 17.5884L 22.4305 16.9339L 16.6384 0L 12.8137 0L 14.2577 3.71187L 9.33253 16.9706L 9.28653 17.5884L 9.23426 16.9706L 3.96899 0L 0 0L 7.30517 21.9188L 10.3473 21.9188L 15.5157 8.60852L 15.8098 7.42102L 16.1492 8.60852L 21.0771 21.9188L 24.0195 21.9188L 31.5993 0"/>
<path id="path9_fill" fill-rule="evenodd" d="M 0 1.49356C 0 0.668902 2.50464 0 5.607 0C 8.70061 0 11.2127 0.668902 11.2127 1.49356C 11.2127 2.31097 8.70061 2.98893 5.607 2.98893C 2.50464 2.98893 0 2.31097 0 1.49356"/>
<path id="path10_fill" fill-rule="evenodd" d="M 0 0L 0 31.3168L 176.688 31.3168L 176.688 0L 0 0Z"/>
<path id="path11_fill" fill-rule="evenodd" d="M 2.34682 1.42515L 2.25083 1.71836L 1.87733 1.8127L 1.66797 1.8127L 1.66797 1.06543L 1.89333 1.06543L 2.14789 1.11294L 2.34682 1.42515ZM 2.7823 2.95916L 2.46513 2.46234L 2.28081 2.20782L 2.09371 2.01438C 2.46165 2.01913 2.67449 1.76529 2.67449 1.42526C 2.67449 1.22571 2.59172 1.06553 2.48391 0.985446C 2.37888 0.88296 2.22517 0.835449 1.97755 0.835449L 1.35156 0.835449L 1.35156 2.95916L 1.66595 2.95916L 1.66595 2.01913L 1.85792 2.11619C 2.01303 2.27773 2.05963 2.3646 2.23421 2.64763L 2.40879 2.95916L 2.7823 2.95916ZM 0.347656 1.91469C 0.347656 0.974661 1.06754 0.274902 1.96758 0.274902C 2.85927 0.274902 3.5722 0.974661 3.5722 1.91469C 3.5722 2.83367 2.85927 3.5375 1.96758 3.5375C 1.06754 3.5375 0.347656 2.83367 0.347656 1.91469ZM 0 1.91467C 0 3.00197 0.893079 3.81033 1.96909 3.81033C 3.02423 3.81033 3.92704 3.00197 3.92704 1.91467C 3.92704 0.814462 3.02423 0 1.96909 0C 0.893079 0 0 0.814462 0 1.91467L 0 1.91467Z"/>
<path id="path12_fill" fill-rule="evenodd" d="M 27.9567 23.1009C 25.1836 26.5209 21.7949 29.1571 17.7955 31.0181C 17.301 29.3702 16.8447 26.918 16.4281 23.6683C 14.3289 25.7255 13.0262 26.9567 12.5156 27.3659C 11.4994 28.1987 10.5152 28.9026 9.56721 29.4896C 8.61779 30.0679 7.60439 30.577 6.52212 31.0181C 6.41501 30.1568 6.1653 28.7648 5.77858 26.8399C 5.23606 24.1291 4.9634 22.1927 4.9634 21.0287C 4.9634 19.4541 5.35639 17.9032 6.13957 16.3809C 6.91997 14.8605 8.09335 13.5241 9.65972 12.3751C 6.84416 12.4497 4.83821 12.7647 3.64257 13.3253C 2.83504 13.7074 2.43232 14.1608 2.43232 14.6895C 2.43232 14.8884 2.52483 15.2067 2.7161 15.6479C 2.8886 16.0544 2.97693 16.3578 2.97693 16.5533C 2.97693 16.8282 2.87677 17.0623 2.67437 17.2585C 2.47127 17.456 2.21253 17.5544 1.89953 17.5544C 1.49333 17.5544 1.14904 17.3793 0.866648 17.0311C 0.584953 16.6836 0.445844 16.1929 0.445844 15.5576C 0.445844 14.3488 1.00367 13.364 2.12211 12.6079C 3.74133 11.5056 6.5715 10.9912 10.6112 11.0699C 11.3179 10.5805 11.8556 10.3355 12.2277 10.3355C 12.5177 10.3355 12.7556 10.4299 12.9399 10.6186C 13.127 10.8072 13.2167 11.038 13.2167 11.3095C 13.2167 11.8979 12.766 12.3052 11.8639 12.5339L 10.0791 15.9621C 9.62842 16.9177 9.29317 17.8713 9.06781 18.8229C 8.84454 19.7799 8.73325 20.7545 8.73325 21.757C 8.73325 23.0126 9.04208 25.0257 9.65972 27.7969C 12.0315 26.2542 14.2399 24.1882 16.2869 21.6009C 16.2736 20.9507 16.2639 20.4736 16.2639 20.1681C 16.2639 16.8336 16.7661 14.2029 17.7719 12.2773C 18.4354 11.0068 19.1692 10.3681 19.9712 10.3681C 20.4504 10.3681 20.8496 10.5704 21.1654 10.9708C 21.4826 11.374 21.6405 11.9706 21.6405 12.7572C 21.6405 13.3959 21.5174 14.1302 21.2697 14.9644C 20.8566 16.3313 20.3614 17.5809 19.7924 18.7197C 19.7924 22.5314 20.0957 25.5585 20.705 27.7969C 22.5586 26.5549 24.36 25.0006 26.1086 23.1233C 27.3933 21.7482 28.3664 20.3154 29.0334 18.8283C 29.6963 17.3358 30.0315 16.1175 30.0315 15.1605C 30.0315 14.6943 29.8535 14.0875 29.5022 13.347C 29.1016 12.485 28.902 11.8559 28.902 11.4629C 28.902 11.0699 29.0473 10.7346 29.3492 10.4529C 29.6455 10.1733 30.0065 10.0335 30.4273 10.0335C 30.9455 10.0335 31.3544 10.2724 31.6612 10.7509C 31.9018 11.1276 32.0451 11.75 32.0966 12.5977L 32.0966 0L 0 0L 0 31.3168L 32.0966 31.3168L 32.0966 13.7379C 31.9735 16.723 30.6039 19.8437 27.9567 23.1009"/>
</defs>
</svg>
